<?xml version="1.0" encoding="utf-8"?>

<!DOCTYPE svg PUBLIC "-//W3C//DTD SVG 1.1//EN" "http://www.w3.org/Graphics/SVG/1.1/DTD/svg11.dtd">
<svg fill="current" version="1.1" id="Layer_1" xmlns="http://www.w3.org/2000/svg" xmlns:xlink="http://www.w3.org/1999/xlink" x="0px" y="0px"
	 viewBox="0 0 2605.043 933.927" enable-background="new 0 0 2605.043 933.927" xml:space="preserve">
<path d="M22.908,481.133h4.399v-1.92h2.48v2.08h5.359v-3.119h3.519v3.039h9.918v1.68h4.159v2.16h-3.599v1.76h10.558l-1.28,36.074
	h1.36v3.279h3.519v5.599c0,0,4.159-0.48,4.159,0s0-3.519,0-3.519h-2.08v-4.879h1.36v-1.68H73.3v-1.92h5.279c0,0-0.88,2.08,0,2.08
	c0.88,0,6.719,0,6.719,0v0.88h3.039v3.999h2.56v-10.638h2.4l1.68-1.68h2.16v-8.239h8.639v-1.6h3.359v2.16h2.64V494.57h4.239v-4.719
	h6.399v3.919h13.918v16.637h2.88v-3.439h5.519v3.359h1.28v-3.119h14.478v-5.839h3.439v-2.24h-1.44v-1.6l3.919-2.64l3.519,2.56
	l-1.48,1.48v2.04h1.8v5.519h12.878v16.397h4.559l1.32-1.32h2.2v-4.359h-2.8v-7.199h7.359v-3.599h5.839v-2.24h10.078v-3.439h5.119
	v-1.6h8.958v1.6h5.999v-4.319h7.119v-8.479h5.039v2.56h5.252v8.745h1.173v-2.773h5.759h4.159c0,0-0.373-0.96,0-0.96
	c0.373,0,4.586,0,4.586,0v3.306h-1.066v17.33h7.572v-1.653h5.492v-3.679h3.626v2.56h3.359v2.72h6.985v-5.066h1.92v-7.732h43.939
	v2.24h2.453v9.598h3.999v-2.346h2.453v2.186h3.146v-2.346h2.879c0,0-0.747-1.866,3.679-1.866v-4.159h0.747v4.426h1.12v-4.053h1.706
	v-5.226h9.332v-1.493c0,0,0.96-1.173,2.72-1.386v-2.666h2.346v2.72c0,0,1.386-0.16,2.56,1.493v1.44h2.133v5.146h3.839v-5.199h4.506
	v6.985h1.6v-1.466h2.08v-3.706h2.773v-1.653h17.997v-2.106h4.586v-1.2l1.146-1.866l1.146,1.946v1.466h24.822v2.026h3.359v3.413
	h3.786v-3.093h3.919v3.866l9.225,4.719v1.36h5.652v-1.28h1.6v1.013h1.573v5.386h5.279v-5.999h15.251v-1.706h2.64v6.879h8.559v-4.026
	l3.733-0.533v-1.226h5.572v5.386h13.171h31.381v3.306h18.157V494.73h5.079v-3.719h9.198v3.719h5.039v16.557h6.759v-1.96h1.84v-1.68
	h2.04v-3.439h13.398v-3.839h3.759v3.279h13.318v-3.359h7.919v-4.879h1.52v5.119H655v3.679h13.038v6.839h19.877v3.319h8.759V498.29
	h9.838v-6.839h5.239v-1.76h1.48v1.76h4.559v-3.079h1.4v3.079h36.794l0.4-99.076l11.518-8.798h19.623v-1.706h3.093v-2.453h13.918
	v-12.958h1.227v-5.919h-1.28v-3.199h4.959v3.306h-1.706v3.519h1.44v-1.76h13.651v-1.12h2.293v1.546h9.492v-5.172h3.359v5.119h2.666
	v11.571h21.81v-6.719l2.346-1.013h8.479v-0.906h-0.587v-0.747h1.226v-2.826h2.666v2.72h1.226v1.12h-1.226v0.96h14.931v9.545h11.998
	v9.918h-0.96l-0.853,89.798h2.026v11.731h2.88v-1.92h1.6v2.186h3.573v6.239h1.706v2.613h2.133v-16.264h8.852v-3.199h3.786v-2.88
	h1.066v2.933h2.933v1.333h1.546l-1.333,1.493v0.906h3.253v10.185h7.732v8.052h24.382v1.36h11.998v8.199h3.559v-3.679h3.959v3.119
	h1.88v0.88h3.959v-0.8h3.639v0.8h1.92v-0.72h4.639v8.638h7.039l0.6-92.864h-0.92v-9.398l30.115-7.399h10.318v-11.238l10.518-2.56
	v-4.759h2.68v5.079h10.118v-2h1.84v2.56h12.758v-2.16h-0.88v-3.479h4.959v3.439h-1.24v15.757h37.314v9.878h-1.36v12.038h20.396
	l-0.32,34.434l16.757,9.078v2.959h-1.36v6.399h4.879v-14.478l-2.2-2v-0.72h2.28v-4.399h3c0,0,2.08-24.636,25.955-30.595v-2.52h2.24
	v-14.118h-0.8v-1.08h1.36v-2.8h0.96v-1.56h1.12v-3.479c0,0,0.4-1.48,3.679-2.8v-2.56h-0.52v-0.96h0.6v-1.24h-0.44v-3.079h2.24v3.039
	h-0.6v1h0.8v1.16h-0.64v2.52c0,0,1.88-0.32,3.839,2.999v3.359h1.36v2.08h0.68v2.16h1.52v1.52h-1.56v10.358h1.12v3.159h1.68v2.24
	c0,0,25.556,9.358,25.556,30.915h3.399v5.359h1.68v1.08l-1.52,1.52v22.916c0,0,0.96,2.64,1.76,2.799h5.399l1.28,1.76h9.918v8.878h2
	v1.52h-1.32l-1.04,2.08l1.12,6.359h9.798v-7.879h-1v-1.76h1.08v-2.36h54.551l5.119-13.758l0.56-8.918h1.28v8.679l3.879,10.958h1.4
	l0.36-2.32h1.08l1.72,4.239h1.48l-0.24-97.583h7.399v-1.68h1.8v1.72h16.557v-13.558h20.756v-2.84h2.16v2.24h6.399v7.239h1.6v-0.76
	h6.959v-3.039h3.439v3.599h5.479v2.32h-4.999v3.439h4.719v116.94h6.839v1.16h5.039v3.039h1.88v-8.918h1.24v-1.6h22.596l1.6-1.6h1.76
	l1.42-1.42h1.42v-6.699h4.519v-1.36h2.599v2.12h25.716V377.63h2.12v-1.12h3.159v1.72h13.918v-1.12h2.72v1.12h17.197v-1.44h-0.96
	v-1.12h12.718v2.96h15.397v-6.359h2l1.36-1.36l-0.36-0.36h-1.96v-1.28h41.913v-14.637l1.52-1.52h3.639v-0.88h3.359v1.4h4.759v3.839
	h2.68v1.48h6.199v-1.2h5.039v2.88h5.399v-2.04h3.759v2.16h17.437v-1.6h3.079v1.56h2.28v-2.52h2.479v2.64h13.278v-1.32h2.28v1.48
	h3.639v-86.305h1.64v-3.199h4.719v-2.96h3.119v-1.48h18.717l12.078,2.2v-4.759l-4.519-0.08c0,0-2.599-0.72-3.359-3.159
	s2-5.239,2-5.239s4.079-2.999,10.038-1.76c5.959,1.24,2.68,7.039,2.68,7.039s-1.68,1.72-4.639,2.84v2.56h1.44v1.2h-1.72v1.64
	l25.716,2.76v-8.199h1.48v8.559h5.439v-2.28l0.8-0.8v-2.68h2.48l1.44,7.159l41.233,4.959l1.573,197.353h2.879l-2.559-321.011
	l9.705-8.319l-0.04-1.68l-4.639,0.08v-3.119l3.439-1.52v-11.638h-3.959v-2.959h1.88l23.049-21.183h10.878l7.785-6.772h8.318v-1.866
	h-0.64v-5.279c0,0-2.746,0.16-2.746,0s0-3.439,0-3.439h1.333V89.2h1.626v-5.359h-2.106v-1.44h2.053v-1.973h-2.293v-1.946h1.946
	v-1.76h-1.653v-1.786h1.626V72.99h-1.6v-2.346h1.466v-1.12h0.96v-2.959h-1.76v-1.386h1.573v-1.546h-1.626v-1.68h1.466v-1.68h-1.36
	v-1.893h1.226v-1.76h-1.52v-1.6h2v-1.813h-2v-1.733c0,0,1.946-0.08,1.946,0c0,0.08,0-1.733,0-1.733h-1.893v-1.76h1.893V17.426h1.973
	v30.741h1.6v2.08h-1.733v1.333h1.84v2.08h-1.893v1.333h1.92v2h-1.893v1.68h1.84v2.106h-2v1.12h1.706v2.08h-1.6v1.36h1.626v1.6
	h-1.546v2.933h1.2v1.36h1.6v1.546h-1.626v2.026h1.44v2.186h-1.386v1.76h1.786v1.626h-1.84v1.786h1.813v1.68h-1.573v12.478h-1.226
	v1.733h2.373v1.28h3.679v-3.173h1.973v3.466h16.424v2.933h5.786v3.786h10.052v2.906h13.811v3.653h-1.253l-1.76,1.76v11.625h2.986
	v3.519l-9.065,5.546v1.546h16.024l1.12,336.849h1.92v-6.666h27.409v9.492h2.826v2.879h2.346v1.493h1.28v-3.199h1.333v3.093h11.891
	v-57.43h1.173v-4.533h-2.453v-1.813h2.346l-1.76-147.548h3.039v-3.466l0.56,0.56v0.88h1.733v-15.731h2.826v-2.56h2.4v-1.12h2.56
	v-15.571h1.013v-1.44h3.093v-1.28h4.426v-1.546h1.813v-9.278h0.96v-1.12h2.4c0,0,4.053-22.076,25.489-23.409l1.013-9.598
	l1.866,8.212h2.986v-13.971h1.28v14.184h2.346l2.666-7.199l0.267,8.319c0,0,21.969,1.226,28.635,24.262h1.493v9.758h5.386v2.933
	h5.172v18.877h7.999v18.61h5.919v62.923l19.943-5.332l99.716,5.919l-0.053,2.08l-5.386,4.266l1.493,162.959h12.851v-66.922
	c0,0,4.213-0.16,4.213,0s0-6.559,0-6.559l-7.572-2.186l14.184-0.053v-8.319h2.453v8.052h2.506v-8.638h1.813v8.265h2.666v-7.839
	h1.333v7.732h11.945v-21.33l14.611-1.546h15.251v-2.72l14.238-1.493h13.704v-4.479h1.706v5.119h14.984v-3.519h4.693v3.039h18.13
	v7.945h6.825v11.251h-5.492v5.119h5.546v20.53l23.196,2.933v2.08l5.865,1.546l-2.133-123.819l31.408-0.693v-2.453h36.26v-7.145
	l10.132-3.466h22.023v-2.613h1.866v2.506h10.878v13.438l37.86,7.999v29.222h11.305v-5.439h33.221v559.32h-2560L22.908,481.133z"/>
<path d="M22.908,481.133h4.399v-1.92h2.48v2.08h5.359v-3.119h3.519v3.039h9.918v1.68h4.159v2.16h-3.599v1.76h10.558l-1.28,36.074
	h1.36v3.279h3.519v5.599c0,0,4.159-0.48,4.159,0s0-3.519,0-3.519h-2.08v-4.879h1.36v-1.68H73.3v-1.92h5.279c0,0-0.88,2.08,0,2.08
	c0.88,0,6.719,0,6.719,0v0.88h3.039v3.999h2.56v-10.638h2.4l1.68-1.68h2.16v-8.239h8.639v-1.6h3.359v2.16h2.64V494.57h4.239v-4.719
	h6.399v3.919h13.918v16.637h2.88v-3.439h5.519v3.359h1.28v-3.119h14.478v-5.839h3.439v-2.24h-1.44v-1.6l3.919-2.64l3.519,2.56
	l-1.48,1.48v2.04h1.8v5.519h12.878v16.397h4.559l1.32-1.32h2.2v-4.359h-2.8v-7.199h7.359v-3.599h5.839v-2.24h10.078v-3.439h5.119
	v-1.6h8.958v1.6h5.999v-4.319h7.119v-8.479h5.039v2.56h5.252v8.745h1.173v-2.773h5.759h4.159c0,0-0.373-0.96,0-0.96
	c0.373,0,4.586,0,4.586,0v3.306h-1.066v17.33h7.572v-1.653h5.492v-3.679h3.626v2.56h3.359v2.72h6.985v-5.066h1.92v-7.732h43.939
	v2.24h2.453v9.598h3.999v-2.346h2.453v2.186h3.146v-2.346h2.879c0,0-0.747-1.866,3.679-1.866v-4.159h0.747v4.426h1.12v-4.053h1.706
	v-5.226h9.332v-1.493c0,0,0.96-1.173,2.72-1.386v-2.666h2.346v2.72c0,0,1.386-0.16,2.56,1.493v1.44h2.133v5.146h3.839v-5.199h4.506
	v6.985h1.6v-1.466h2.08v-3.706h2.773v-1.653h17.997v-2.106h4.586v-1.2l1.146-1.866l1.146,1.946v1.466h24.822v2.026h3.359v3.413
	h3.786v-3.093h3.919v3.866l9.225,4.719v1.36h5.652v-1.28h1.6v1.013h1.573v5.386h5.279v-5.999h15.251v-1.706h2.64v6.879h8.559v-4.026
	l3.733-0.533v-1.226h5.572v5.386h13.171h31.381v3.306h18.157V494.73h5.079v-3.719h9.198v3.719h5.039v16.557h6.759v-1.96h1.84v-1.68
	h2.04v-3.439h13.398v-3.839h3.759v3.279h13.318v-3.359h7.919v-4.879h1.52v5.119H655v3.679h13.038v6.839h19.877v3.319h8.759V498.29
	h9.838v-6.839h5.239v-1.76h1.48v1.76h4.559v-3.079h1.4v3.079h36.794l0.4-99.076l11.518-8.798h19.623v-1.706h3.093v-2.453h13.918
	v-12.958h1.227v-5.919h-1.28v-3.199h4.959v3.306h-1.706v3.519h1.44v-1.76h13.651v-1.12h2.293v1.546h9.492v-5.172h3.359v5.119h2.666
	v11.571h21.81v-6.719l2.346-1.013h8.479v-0.906h-0.587v-0.747h1.226v-2.826h2.666v2.72h1.226v1.12h-1.226v0.96h14.931v9.545h11.998
	v9.918h-0.96l-0.853,89.798h2.026v11.731h2.88v-1.92h1.6v2.186h3.573v6.239h1.706v2.613h2.133v-16.264h8.852v-3.199h3.786v-2.88
	h1.066v2.933h2.933v1.333h1.546l-1.333,1.493v0.906h3.253v10.185h7.732v8.052h24.382v1.36h11.998v8.199h3.559v-3.679h3.959v3.119
	h1.88v0.88h3.959v-0.8h3.639v0.8h1.92v-0.72h4.639v8.638h7.039l0.6-92.864h-0.92v-9.398l30.115-7.399h10.318v-11.238l10.518-2.56
	v-4.759h2.68v5.079h10.118v-2h1.84v2.56h12.758v-2.16h-0.88v-3.479h4.959v3.439h-1.24v15.757h37.314v9.878h-1.36v12.038h20.396
	l-0.32,34.434l16.757,9.078v2.959h-1.36v6.399h4.879v-14.478l-2.2-2v-0.72h2.28v-4.399h3c0,0,2.08-24.636,25.955-30.595v-2.52h2.24
	v-14.118h-0.8v-1.08h1.36v-2.8h0.96v-1.56h1.12v-3.479c0,0,0.4-1.48,3.679-2.8v-2.56h-0.52v-0.96h0.6v-1.24h-0.44v-3.079h2.24v3.039
	h-0.6v1h0.8v1.16h-0.64v2.52c0,0,1.88-0.32,3.839,2.999v3.359h1.36v2.08h0.68v2.16h1.52v1.52h-1.56v10.358h1.12v3.159h1.68v2.24
	c0,0,25.556,9.358,25.556,30.915h3.399v5.359h1.68v1.08l-1.52,1.52v22.916c0,0,0.96,2.64,1.76,2.799h5.399l1.28,1.76h9.918v8.878h2
	v1.52h-1.32l-1.04,2.08l1.12,6.359h9.798v-7.879h-1v-1.76h1.08v-2.36h54.551l5.119-13.758l0.56-8.918h1.28v8.679l3.879,10.958h1.4
	l0.36-2.32h1.08l1.72,4.239h1.48l-0.24-97.583h7.399v-1.68h1.8v1.72h16.557v-13.558h20.756v-2.84h2.16v2.24h6.399v7.239h1.6v-0.76
	h6.959v-3.039h3.439v3.599h5.479v2.32h-4.999v3.439h4.719v116.94h6.839v1.16h5.039v3.039h1.88v-8.918h1.24v-1.6h22.596l1.6-1.6h1.76
	l1.42-1.42h1.42v-6.699h4.519v-1.36h2.599v2.12h25.716V377.63h2.12v-1.12h3.159v1.72h13.918v-1.12h2.72v1.12h17.197v-1.44h-0.96
	v-1.12h12.718v2.96h15.397v-6.359h2l1.36-1.36l-0.36-0.36h-1.96v-1.28h41.913v-14.637l1.52-1.52h3.639v-0.88h3.359v1.4h4.759v3.839
	h2.68v1.48h6.199v-1.2h5.039v2.88h5.399v-2.04h3.759v2.16h17.437v-1.6h3.079v1.56h2.28v-2.52h2.479v2.64h13.278v-1.32h2.28v1.48
	h3.639v-86.305h1.64v-3.199h4.719v-2.96h3.119v-1.48h18.717l12.078,2.2v-4.759l-4.519-0.08c0,0-2.599-0.72-3.359-3.159
	s2-5.239,2-5.239s4.079-2.999,10.038-1.76c5.959,1.24,2.68,7.039,2.68,7.039s-1.68,1.72-4.639,2.84v2.56h1.44v1.2h-1.72v1.64
	l25.716,2.76v-8.199h1.48v8.559h5.439v-2.28l0.8-0.8v-2.68h2.48l1.44,7.159l41.233,4.959l1.573,197.353h2.879l-2.559-321.011
	l9.705-8.319l-0.04-1.68l-4.639,0.08v-3.119l3.439-1.52v-11.638h-3.959v-2.959h1.88l23.049-21.183h10.878l7.785-6.772h8.318v-1.866
	h-0.64v-5.279c0,0-2.746,0.16-2.746,0s0-3.439,0-3.439h1.333V89.2h1.626v-5.359h-2.106v-1.44h2.053v-1.973h-2.293v-1.946h1.946
	v-1.76h-1.653v-1.786h1.626V72.99h-1.6v-2.346h1.466v-1.12h0.96v-2.959h-1.76v-1.386h1.573v-1.546h-1.626v-1.68h1.466v-1.68h-1.36
	v-1.893h1.226v-1.76h-1.52v-1.6h2v-1.813h-2v-1.733c0,0,1.946-0.08,1.946,0c0,0.08,0-1.733,0-1.733h-1.893v-1.76h1.893V17.426h1.973
	v30.741h1.6v2.08h-1.733v1.333h1.84v2.08h-1.893v1.333h1.92v2h-1.893v1.68h1.84v2.106h-2v1.12h1.706v2.08h-1.6v1.36h1.626v1.6
	h-1.546v2.933h1.2v1.36h1.6v1.546h-1.626v2.026h1.44v2.186h-1.386v1.76h1.786v1.626h-1.84v1.786h1.813v1.68h-1.573v12.478h-1.226
	v1.733h2.373v1.28h3.679v-3.173h1.973v3.466h16.424v2.933h5.786v3.786h10.052v2.906h13.811v3.653h-1.253l-1.76,1.76v11.625h2.986
	v3.519l-9.065,5.546v1.546h16.024l1.12,336.849h1.92v-6.666h27.409v9.492h2.826v2.879h2.346v1.493h1.28v-3.199h1.333v3.093h11.891
	v-57.43h1.173v-4.533h-2.453v-1.813h2.346l-1.76-147.548h3.039v-3.466l0.56,0.56v0.88h1.733v-15.731h2.826v-2.56h2.4v-1.12h2.56
	v-15.571h1.013v-1.44h3.093v-1.28h4.426v-1.546h1.813v-9.278h0.96v-1.12h2.4c0,0,4.053-22.076,25.489-23.409l1.013-9.598
	l1.866,8.212h2.986v-13.971h1.28v14.184h2.346l2.666-7.199l0.267,8.319c0,0,21.969,1.226,28.635,24.262h1.493v9.758h5.386v2.933
	h5.172v18.877h7.999v18.61h5.919v62.923l19.943-5.332l99.716,5.919l-0.053,2.08l-5.386,4.266l1.493,162.959h12.851v-66.922
	c0,0,4.213-0.16,4.213,0s0-6.559,0-6.559l-7.572-2.186l14.184-0.053v-8.319h2.453v8.052h2.506v-8.638h1.813v8.265h2.666v-7.839
	h1.333v7.732h11.945v-21.33l14.611-1.546h15.251v-2.72l14.238-1.493h13.704v-4.479h1.706v5.119h14.984v-3.519h4.693v3.039h18.13
	v7.945h6.825v11.251h-5.492v5.119h5.546v20.53l23.196,2.933v2.08l5.865,1.546l-2.133-123.819l31.408-0.693v-2.453h36.26v-7.145
	l10.132-3.466h22.023v-2.613h1.866v2.506h10.878v13.438l37.86,7.999v29.222h11.305v-5.439h33.221v559.32h-2560L22.908,481.133z"/>
</svg>
